<svg xmlns="http://www.w3.org/2000/svg" width="237.46449mm" height="238.45448mm" viewBox="0 0 237.46449 238.45448"><defs><clipPath id="a" clipPathUnits="userSpaceOnUse"><path d="M287.779 215.612c0-8.234 6.674-14.908 14.907-14.908 8.234 0 14.909 6.674 14.909 14.908 0 8.233-6.675 14.909-14.909 14.909-8.233 0-14.907-6.676-14.907-14.909m5.031 0c0 5.454 4.422 9.876 9.876 9.876 5.455 0 9.877-4.422 9.877-9.876 0-5.455-4.422-9.876-9.877-9.876-5.454 0-9.876 4.421-9.876 9.876"/></clipPath></defs><path d="m0 0-21.608 21.608-43.857-43.857L-.451-87.264l43.406 43.406V0Z" style="fill:#fff;fill-opacity:1;fill-rule:nonzero;stroke:none" transform="matrix(2.19023 0 0 -2.19023 143.383 47.326)"/><path d="m0 0 .649 5.217.161 1.291H-.464l.267 1.498c.167 1.017.261 2.499-.812 3.79-1.11 1.319-2.672 1.47-3.75 1.47l-17.79-.018-1.014-.001-.092-.734c-1.317.741-2.807.849-3.933.849-1.786 0-3.239-.34-4.411-1.035-.811.559-1.853.841-3.112.841l-17.483.001h-2.07l1.094-1.758 1.753-2.817-1.251-8.741-.188-1.313h1.326l15.602.001c1.222 0 2.307.302 3.195.882 1.403-.95 3.044-1.076 4.236-1.076 2.47 0 4.386.72 5.717 2.146a4.26 4.26 0 0 1 2.709-.972h2.03l-.023-.185-.161-1.292H-10.639l.118.948h9.38" style="fill:#fff;fill-opacity:1;fill-rule:nonzero;stroke:none" transform="matrix(2.19023 0 0 -2.19023 200.358 217.833)"/><path d="m0 0-42.262 42.262v42.262h84.524V42.262Z" style="fill:#ed1d24;fill-opacity:1;fill-rule:nonzero;stroke:none" transform="matrix(2.19023 0 0 -2.19023 142.225 234.787)"/><path d="m0 0 42.262 42.262-63.393 63.393-42.262-42.262Z" style="fill:#00aeef;fill-opacity:1;fill-rule:nonzero;stroke:none" transform="matrix(2.19023 0 0 -2.19023 142.225 234.787)"/><path d="m0 0 42.262-42.262L84.524 0 42.262 42.262H0Z" style="fill:#002561;fill-opacity:1;fill-rule:nonzero;stroke:none" transform="matrix(2.19023 0 0 -2.19023 49.66 142.224)"/><path d="M0 0a9.875 9.875 0 0 0-9.876 9.876c0 5.454 4.421 9.876 9.876 9.876 5.455 0 9.876-4.422 9.876-9.876A9.875 9.875 0 0 0 0 0m0 24.784c-8.233 0-14.908-6.675-14.908-14.908C-14.908 1.642-8.233-5.032 0-5.032c8.234 0 14.909 6.674 14.909 14.908 0 8.233-6.675 14.908-14.909 14.908" style="fill:#fff;fill-opacity:1;fill-rule:nonzero;stroke:none" transform="matrix(2.19023 0 0 -2.19023 142.82 163.191)"/><path d="M0 0v4.731c0 .319-.054.482-.227.674-.11.136-.037.254.1.254h1.555V0Zm1.583-1.765v-1.028h-5.196c-1.1 0-1.537.282-1.537 1.2v1.32c0 .182-.063.318-.191.474-.109.135-.036.263.092.263h1.546v-1.865c0-.282.09-.364.373-.364zm-5.987 6.36c0 .3-.018.464-.191.655-.109.136-.036.263.091.263h1.575v-1.21c0-1.192 1.164-1.892 2.22-2.247l-.391-.737c-.119-.218-.565-.136-1.348.346-.445.273-.873.637-1.155 1.019A4.587 4.587 0 0 0-4.84 1.483c-.555-.364-1.265-.709-1.383-.482l-.419.791c1.21.474 2.238 1.265 2.238 2.421z" style="fill:#fff;fill-opacity:1;fill-rule:nonzero;stroke:none" transform="matrix(2.19023 0 0 -2.19023 88.85 81.075)"/><path d="M0 0v4.859c0 .318-.046.464-.218.673-.118.136-.046.255.09.255h1.557V3.639h1.037V2.611H1.429V0Zm-3.594 1.829c.628 0 .991.482.991 1.064 0 .619-.363 1.092-.991 1.092-.637 0-.992-.473-.992-1.092 0-.582.355-1.064.992-1.064m5.132-3.467v-1.028h-5.105c-1.101 0-1.538.282-1.538 1.201v.956c0 .181-.063.318-.191.473-.108.136-.035.264.091.264h1.548v-1.501c0-.283.09-.365.372-.365zm-5.796 6.752c0 .318-.018.464-.192.673-.118.136-.045.255.092.255h1.556v-1.02h2.065v-1h-.955c.282-.319.454-.71.454-1.174 0-1.147-.846-2.02-2.356-2.02-1.501 0-2.357.873-2.357 2.02 0 .473.164.865.437 1.174h-.955v1h2.211z" style="fill:#fff;fill-opacity:1;fill-rule:nonzero;stroke:none" transform="matrix(2.19023 0 0 -2.19023 108.242 81.354)"/><path d="M0 0c0 .555-.546.919-1.929.919S-3.858.555-3.858 0s.546-.919 1.929-.919S0-.555 0 0m1.401 0c0-1.074-1.01-1.893-3.33-1.893-2.32 0-3.33.819-3.33 1.893s1.01 1.893 3.33 1.893c2.32 0 3.33-.819 3.33-1.893m-6.578-4.595c0 .182-.064.319-.191.473-.109.137-.037.264.091.264h1.547v-1.501c0-.173.1-.264.282-.264h4.977v-1.028h-5.614c-.701 0-1.092.418-1.092 1.037zm7.579 1.283h-8.671v.991h8.671z" style="fill:#fff;fill-opacity:1;fill-rule:nonzero;stroke:none" transform="matrix(2.19023 0 0 -2.19023 127.93 72.625)"/><path d="M0 0v-4.741h-1.301v1.938h-.609v-1.692h-1.302v3.594c0 .328-.073.437-.182.592-.109.154-.036.255.082.255h1.402v-1.675h.609V0Zm-1.465-6.815c0 .537-.437.901-1.82.901s-1.82-.364-1.82-.901.437-.9 1.82-.9 1.82.363 1.82.9m1.465 0c0-1.192-1.11-1.893-3.285-1.893-2.174 0-3.284.701-3.284 1.893 0 1.192 1.11 1.892 3.284 1.892C-1.11-4.923 0-5.623 0-6.815m-5.95 3.139c.591 0 .837.482.837.965 0 .509-.246.991-.837.991-.592 0-.837-.482-.837-.991 0-.483.245-.965.837-.965m-.646 3.012c0 .327-.019.482-.182.673-.119.146-.037.273.1.273h1.5v-.973h1.62v-1.002h-.609c.209-.281.337-.618.337-1.01 0-1.173-.765-1.955-2.12-1.955-1.356 0-2.12.782-2.12 1.955 0 .392.127.729.327 1.01h-.719v1.002h1.866z" style="fill:#fff;fill-opacity:1;fill-rule:nonzero;stroke:none" transform="matrix(2.19023 0 0 -2.19023 152.543 68.68)"/><path d="m0 0 .507 2.849c.139.846.202 1.933-.563 2.854-.788.935-1.945 1.055-2.866 1.055l-17.789-.018-.244-1.953c-.107.172-.226.34-.364.499-1.218 1.405-3.113 1.568-4.432 1.568-1.937 0-3.414-.437-4.495-1.353l-.034.042c-.967 1.117-2.493 1.117-2.994 1.117l-17.483.001 1.975-3.173-1.311-9.156 15.602.001c1.343 0 2.431.427 3.202 1.217 1.226-1.258 2.988-1.412 4.229-1.412 2.722 0 4.577.927 5.668 2.875.117-.237.263-.463.442-.667a3.108 3.108 0 0 1 2.316-1.034h3.125l.207.003-.184-1.479h5.668l.117.947H.696L1.345 0Z" style="fill:#002561;fill-opacity:1;fill-rule:nonzero;stroke:none" transform="matrix(2.19023 0 0 -2.19023 196.335 206.096)"/><path d="M0 0c-.01.012-.016.037-.011.074L.18 1.613h3.303l.514 4.143c.018.148-.011.267-.082.351-.078.086-.195.129-.352.129h-4.865l-.196-1.562h3.323L1.641 3.17l-3.896-.001s.231-.562.312-.691c.127-.184.156-.312.124-.57l-.262-2.124c-.044-.348.06-.683.294-.95.244-.273.6-.433.976-.433h3.124c.607 0 1.225.037 1.62.302l.108.069.15 1.205H.094C.039-.023.009-.01 0 0" style="fill:#fff;fill-opacity:1;fill-rule:nonzero;stroke:none" transform="matrix(2.19023 0 0 -2.19023 157.3 208.927)"/><path d="m0 0 .119-.206C.14-.245.34-.593.416-.694c.118-.167.144-.255.107-.559l-1.05-8.475H1.52L2.72 0Z" style="fill:#fff;fill-opacity:1;fill-rule:nonzero;stroke:none" transform="matrix(2.19023 0 0 -2.19023 168.024 194.356)"/><path d="m0 0 .879 4.937c.118.717.069 1.123-.166 1.405-.25.298-.68.416-1.491.416h-5.619l.023-.155s.032-.228.087-.557c.058-.349.367-.831.379-.852l.039-.059h4.706L-2.039 0h-6.246l-.201-1.624h9.739L1.455 0Z" style="fill:#fff;fill-opacity:1;fill-rule:nonzero;stroke:none" transform="matrix(2.19023 0 0 -2.19023 191.639 210.03)"/><path d="M0 0c.439.366 1.757 1.757 3.533 4.012H1.129C-.573 1.757-2.004.278-2.534-.112c.435-.198 1.457-1.717 2.62-4.612h2.433C1.367-1.829.336-.286 0 0" style="fill:#fff;fill-opacity:1;fill-rule:nonzero;stroke:none" transform="matrix(2.19023 0 0 -2.19023 102.604 204.23)"/><path d="M0 0c.24-.4.734-.48.651-1.122l-1.09-7.614h2.015L2.831 0Z" style="fill:#fff;fill-opacity:1;fill-rule:nonzero;stroke:none" transform="matrix(2.19023 0 0 -2.19023 92.12 195.442)"/><path d="M0 0c-.086-.6-.294-.826-.684-.826h-2.381L-2.828.83h2.384C-.059.83.084.601 0 0m-.367-3.509c-.093-.676-.349-.962-.778-.962h-2.443l.288 2.003h2.394c.45 0 .642-.325.539-1.041m.72 6.055h-5.767c.245-.402.74-.48.655-1.122l-1.094-7.612h4.989c1.418 0 2.393.599 2.646 2.356.194 1.364-.122 2.239-.934 2.239.752 0 1.21.829 1.386 2.047.196 1.364-.138 2.092-1.881 2.092" style="fill:#fff;fill-opacity:1;fill-rule:nonzero;stroke:none" transform="matrix(2.19023 0 0 -2.19023 122.684 201.021)"/><path d="M0 0c-.349-2.42-.723-2.77-2.495-2.77-1.764 0-2.039.35-1.692 2.77.343 2.381.707 2.659 2.475 2.659C.054 2.659.343 2.381 0 0m-1.448 4.51c-2.805 0-4.383-.937-4.892-4.486-.518-3.596.774-4.636 3.583-4.636 2.798 0 4.398 1.04 4.913 4.636.511 3.549-.806 4.486-3.604 4.486" style="fill:#fff;fill-opacity:1;fill-rule:nonzero;stroke:none" transform="matrix(2.19023 0 0 -2.19023 143.106 204.898)"/><g style="fill:#002561;fill-opacity:1"><path d="m0 0 .956.928c.579.53 1.026.985 1.342 1.366.316.38.534.727.657 1.041.122.315.183.632.183.953 0 .503-.123.945-.369 1.327a2.45 2.45 0 0 1-1.038.892c-.447.214-.973.321-1.579.321-.587 0-1.102-.113-1.545-.339a2.453 2.453 0 0 1-1.031-.962c-.245-.416-.367-.91-.367-1.482h1.828c0 .255.046.471.139.649a.968.968 0 0 0 .388.408c.166.094.359.142.58.142.219 0 .412-.045.581-.136a.989.989 0 0 0 .397-.383c.097-.166.145-.365.145-.597 0-.208-.04-.4-.121-.577a2.158 2.158 0 0 0-.351-.525 9.545 9.545 0 0 0-.557-.573L-2.673-.23v-1.461h5.908v1.637H0Z" style="fill:#002561;fill-opacity:1;fill-rule:nonzero;stroke:none" transform="matrix(2.19023 0 0 -2.19023 181.257 39.633)"/></g><g style="fill:#002561;fill-opacity:1"><path d="M0 0c-.257-.447-.594-.671-1.01-.671-.275 0-.518.099-.728.298-.211.198-.374.499-.489.904-.116.405-.173.915-.17 1.531.002.908.131 1.581.386 2.02.255.44.588.659 1.001.659.279 0 .522-.097.73-.292.207-.194.37-.488.487-.883.117-.396.175-.897.175-1.504C.385 1.134.258.447 0 0m.794 5.884c-.506.338-1.107.506-1.804.506-.696 0-1.296-.168-1.798-.506-.503-.338-.89-.83-1.162-1.473-.271-.644-.409-1.428-.411-2.349-.002-.922.133-1.711.405-2.365.273-.656.662-1.158 1.166-1.506.504-.35 1.104-.524 1.8-.524.7 0 1.301.174 1.804.52.502.346.89.846 1.163 1.503.273.657.409 1.447.409 2.372.003.919-.133 1.701-.405 2.347-.273.645-.662 1.137-1.167 1.475" style="fill:#002561;fill-opacity:1;fill-rule:nonzero;stroke:none" transform="matrix(2.19023 0 0 -2.19023 199.704 38.676)"/></g><g style="fill:#002561;fill-opacity:1"><path d="m0 0 .955.928c.58.53 1.027.985 1.343 1.366.316.38.535.727.657 1.041.122.315.183.632.183.953 0 .503-.123.945-.368 1.327a2.46 2.46 0 0 1-1.039.892c-.447.214-.973.321-1.579.321-.587 0-1.102-.113-1.545-.339a2.453 2.453 0 0 1-1.031-.962c-.245-.416-.367-.91-.367-1.482h1.828c0 .255.047.471.139.649a.974.974 0 0 0 .388.408c.165.094.36.142.58.142.219 0 .412-.045.581-.136a.998.998 0 0 0 .398-.383c.096-.166.144-.365.144-.597 0-.208-.04-.4-.121-.577a2.158 2.158 0 0 0-.351-.525 9.819 9.819 0 0 0-.556-.573L-2.674-.23v-1.461h5.91v1.637H0Z" style="fill:#002561;fill-opacity:1;fill-rule:nonzero;stroke:none" transform="matrix(2.19023 0 0 -2.19023 212.687 39.633)"/></g><g style="fill:#002561;fill-opacity:1"><path d="M0 0c.693.122 1.395.824 1.395 1.782 0 1.486-1.191 2.493-2.911 2.493-1.7 0-2.891-1.14-2.891-2.717h1.822c0 .59.335 1.17 1.059 1.17.692 0 1.099-.377 1.099-.987 0-.632-.448-1.038-1.202-1.038h-.824V-.804h.824c.866 0 1.446-.367 1.446-1.059 0-.611-.509-1.028-1.272-1.028-.774 0-1.192.397-1.263 1.059H-4.54c.133-1.598 1.263-2.616 3.085-2.616 1.72 0 3.074.997 3.074 2.595C1.619-.784.764-.122 0 0" style="fill:#002561;fill-opacity:1;fill-rule:nonzero;stroke:none" transform="matrix(2.19023 0 0 -2.19023 231.378 34.042)"/></g><path d="M0 0c-1.092-.455-.693-1.917-.424-2.879.13-.489.26-.851.647-1.506.389-.656 1.382-1.442 3.133-2.184-.362-.201-1.213-.448-1.803-.603.674-1.014 1.453-1.945 2.334-2.715 1.788-1.562 2.453-1.609 2.453-1.609s.226 1.055.13 2.107c-.04.467-.251.832-.498 1.039-.816.674-1.413 1.382-1.989 2.267-1.15 1.763-2.539 4.725-.111 5.078 1.185-.953 2.137-2.24 2.83-3.61v3.318C5.134-.6 3.753-.168 2.536.04 1.778.167.687.288 0 0" style="fill:#002561;fill-opacity:1;fill-rule:nonzero;stroke:none" transform="matrix(2.19023 0 0 -2.19023 220.11 88.014)"/><path d="M0 0c.439.263 1.385.563 1.995.742C.266 2.706-2.313 4.135-4.754 3.739-5.7 3.578-6.6 3.3-7.317 2.094c1.463.232 3.646-.486 4.809-1.417C.005-1.335.972-4.271.587-6.982l3.454-3.454c.82 2.268.704 4.72-.042 7.182C3.34-1.246 2.193-.854 0 0" style="fill:#002561;fill-opacity:1;fill-rule:nonzero;stroke:none" transform="matrix(2.19023 0 0 -2.19023 209.077 102.506)"/><path d="m0 0 3.204-3.204C3.582-1.213 4.282.928 5.439 3.193 3.524 2.757 1.674 1.945 0 0" style="fill:#002561;fill-opacity:1;fill-rule:nonzero;stroke:none" transform="matrix(2.19023 0 0 -2.19023 175.861 83.297)"/><path d="M0 0c-1.342.05-2.895-.275-3.615-.424.03.69 2.768 1.927 2.768 1.927S-7.862 4.237-13.407.455c-2.087-1.423-5.118-4.308-5.895-10.562-.016-.133-.029-.275-.044-.415l1.736-1.736c.106.19.217.375.334.555 2.1 3.226 5.923 5.477 9.674 5.957 4.027.513 7.181-.145 10.596-1.588v6.656C2.023-.282 1.016-.04 0 0" style="fill:#002561;fill-opacity:1;fill-rule:nonzero;stroke:none" transform="matrix(2.19023 0 0 -2.19023 228.23 70.247)"/><path d="m0 0 4.159-4.159v9.55C3.112 3.154 1.562 1.28 0 0" style="fill:#002561;fill-opacity:1;fill-rule:nonzero;stroke:none" transform="matrix(2.19023 0 0 -2.19023 225.678 133.114)"/><path d="M0 0v-23.853h11.11v-4.33H-5.882v24.548c0 1.225-.204 1.838-.898 2.614C-7.23-.49-6.944 0-6.413 0Z" style="fill:#fff;fill-opacity:1;fill-rule:nonzero;stroke:none" transform="matrix(2.19023 0 0 -2.19023 185.762 85.776)"/><path d="M0 0c2.165-1.757 5.595-2.818 7.965-2.818 2.94 0 4.697 1.266 4.697 3.676 0 1.878-.735 3.063-3.145 4.289C6.78 6.535 4.534 7.393 2.45 9.19.571 10.824-.776 12.866-.776 15.848c0 4.207 3.472 7.148 9.271 7.148 3.187 0 5.841-.531 8.333-1.593v-4.452c0-.654-.613-.858-1.103-.45-2.042 1.716-4.125 2.492-6.535 2.492-2.532 0-4.003-1.185-4.003-3.145 0-1.389.531-2.369 1.471-3.146 1.797-1.47 4.043-2.532 6.004-3.471 3.758-1.797 5.963-3.88 5.963-8.292 0-5.514-4.656-7.761-10.578-7.761-4.371 0-9.885 2.084-9.191 3.882z" style="fill:#fff;fill-opacity:1;fill-rule:nonzero;stroke:none" transform="matrix(2.19023 0 0 -2.19023 76.698 149.302)"/><g clip-path="url(#a)" transform="matrix(2.19023 0 0 -2.19023 -520.132 613.8)"><path d="M0 0c0-7.355-5.963-13.317-13.318-13.317-7.355 0-13.317 5.962-13.317 13.317s5.962 13.318 13.317 13.318S0 7.355 0 0" style="fill:#fff;fill-opacity:1;fill-rule:nonzero;stroke:none" transform="translate(317.127 202.294)"/><path d="M0 0c0-8.354-6.773-15.126-15.127-15.126-8.353 0-15.125 6.772-15.125 15.126s6.772 15.126 15.125 15.126C-6.773 15.126 0 8.354 0 0" style="fill:#fff;fill-opacity:1;fill-rule:nonzero;stroke:none" transform="translate(317.595 227.603)"/><path d="M0 0c0-7.835-6.351-14.186-14.186-14.186S-28.372-7.835-28.372 0s6.351 14.186 14.186 14.186S0 7.835 0 0" style="fill:#fff;fill-opacity:1;fill-rule:nonzero;stroke:none" transform="translate(311.811 217.27)"/><path d="M0 0c0-8.58-6.955-15.534-15.534-15.534-8.58 0-15.535 6.954-15.535 15.534 0 8.58 6.955 15.534 15.535 15.534C-6.955 15.534 0 8.58 0 0" style="fill:#fff;fill-opacity:1;fill-rule:nonzero;stroke:none" transform="translate(329.485 222.603)"/></g></svg>