<svg xmlns="http://www.w3.org/2000/svg" width="896.924" height="713.14" viewBox="0 0 237.31114 188.68497"><path d="M444.744-.008V0C399.576-.202 210.64 10.333 73.807 191.234c-1.904 2.316-6.202 8.098-6.202 8.098l29.682 42.559-97.285.002v64.052l56.662.004v147.559h72.613l.002-146.238 115.352 153.802-47.92-.02 76.064 90.811 60.012.006 120.781 161.262L574.875 551.87l62.23-.068 76.876-95.586h182.945v-94.043l-84.01-56.223 84.01-.013V241.89h-86.498l29.861-43.096-6.012-7.012C698.082 11.24 509.712-.1 463.317-.007h-18.573z" style="fill:#fff;fill-opacity:1;stroke-width:3.77953" transform="matrix(.26458 0 0 .26458 0 .002)"/><path d="M26.437 59.32h16.126l-4.244-5.375s28.29-37.907 81.756-37.907V3.307S62.365-.936 21.91 52.814z" style="fill:#be0737;fill-opacity:1;fill-rule:nonzero;stroke:none;stroke-width:.352778" transform="translate(0 .002)"/><path d="M213.714 59.32h-16.127l4.245-5.375s-28.29-37.907-81.757-37.907V3.307s57.71-4.243 98.165 49.507z" style="fill:#1d1d1b;fill-opacity:1;fill-rule:nonzero;stroke:none;stroke-width:.352778" transform="translate(0 .002)"/><path d="M46.24 67.242H3.242v10.466h14.993v39.04h12.73v-39.04h15.277zM133.936 116.748h-12.729V67.242h12.73zM98.858 67.242v30.27l-5.09 7.071-5.377-7.071v-30.27h-12.73v30.27l-5.94 7.071-4.81-7.071v-30.27H52.18v32.532l12.73 16.974h10.75l6.365-8.487 6.223 8.487h10.61l12.73-16.974V67.242zM175.523 67.242v26.622l-20.651-26.622h-14.71l3.96 5.233v44.273h12.73V89.216l20.933 27.532h10.467V67.241zM234.082 77.709V67.242h-36.776V86.478l23.48 15.842v4.668h-23.48v10.467h36.776V97.512L210.32 81.669v-3.96z" style="fill:#be0737;fill-opacity:1;fill-rule:nonzero;stroke:none;stroke-width:.352778" transform="translate(0 .002)"/><path d="m151.76 141.077-31.685 42.151v-21.076l14.429-21.075z" style="fill:#1d1d1b;fill-opacity:1;fill-rule:nonzero;stroke:none;stroke-width:.352778" transform="translate(0 .002)"/><path d="m88.392 141.077 31.685 42.151v-21.076l-14.429-21.075Z" style="fill:#be0737;fill-opacity:1;fill-rule:nonzero;stroke:none;stroke-width:.352778" transform="translate(0 .002)"/><path d="m73.681 142.774-14.71-17.54h122.211l-14.145 17.54z" style="fill:#706e6f;fill-opacity:1;fill-rule:nonzero;stroke:none;stroke-width:.352778" transform="translate(0 .002)"/><path d="M97.089 137.447c.608 0 1.05-.107 1.323-.323.273-.216.411-.489.411-.815v-.145c0-.389-.144-.678-.43-.867-.287-.19-.704-.346-1.252-.472-.397-.087-.797-.18-1.198-.276a3.795 3.795 0 0 1-1.086-.438 2.31 2.31 0 0 1-.788-.787c-.202-.332-.304-.775-.304-1.33v-.173c0-.292.057-.594.172-.908a2.4 2.4 0 0 1 .57-.867c.264-.265.615-.484 1.052-.654.437-.172.978-.259 1.622-.259.53 0 1.037.055 1.523.166.485.11.97.32 1.456.629l-.795 1.31c-.388-.247-.75-.408-1.085-.483a4.954 4.954 0 0 0-1.073-.112c-.3 0-.56.035-.78.105-.221.072-.404.164-.55.278a1.192 1.192 0 0 0-.324.371.833.833 0 0 0-.107.398v.159c0 .228.055.415.166.555.11.14.258.258.444.35.185.094.404.169.655.226.251.058.518.117.801.18a6.773 6.773 0 0 1 1.423.456c.384.18.693.387.927.616.234.23.402.484.504.761.1.278.152.58.152.907v.171c0 .53-.095.974-.285 1.332a2.32 2.32 0 0 1-.775.86c-.326.217-.701.371-1.125.463a6.107 6.107 0 0 1-1.324.139c-.345 0-.682-.028-1.013-.085a6.306 6.306 0 0 1-.934-.233 4.909 4.909 0 0 1-1.47-.78l.821-1.351c.292.248.667.464 1.126.649a4.09 4.09 0 0 0 1.55.277M112.805 129.28v1.402h-4.463v2.569h4.184v1.376h-4.184v2.794h4.555v1.404h-6.236v-9.545zM122.774 137.42c.327 0 .631-.04.914-.124.282-.085.53-.233.74-.444.214-.21.378-.498.498-.86.12-.363.178-.817.178-1.365v-1.151c0-.548-.059-1.001-.178-1.364-.12-.361-.284-.649-.497-.861a1.736 1.736 0 0 0-.741-.444 3.23 3.23 0 0 0-.914-.125 3.18 3.18 0 0 0-.9.125c-.283.085-.53.233-.741.444-.212.212-.38.5-.504.86-.124.364-.184.817-.184 1.365v1.151c0 .548.06 1.002.184 1.365.124.362.291.65.504.86.21.211.458.359.741.444.283.084.583.125.9.125m0-8.288c.539 0 1.052.078 1.544.231.488.156.92.398 1.29.729.37.331.664.757.88 1.278.217.521.325 1.15.325 1.893v1.576c0 .75-.108 1.387-.324 1.913-.217.526-.508.952-.875 1.277a3.436 3.436 0 0 1-1.284.717 5.31 5.31 0 0 1-1.556.223 5.308 5.308 0 0 1-1.555-.223 3.439 3.439 0 0 1-1.285-.717c-.366-.325-.657-.751-.874-1.277-.217-.526-.324-1.162-.324-1.913v-1.576c0-.742.107-1.372.324-1.893.217-.521.51-.947.882-1.278.37-.331.8-.573 1.29-.729a5.12 5.12 0 0 1 1.542-.23M136.518 137.436c.343 0 .644-.043.9-.127.255-.083.466-.225.63-.424.162-.198.283-.459.363-.78.08-.324.12-.718.12-1.186v-5.64h1.693v5.614c0 .785-.08 1.439-.244 1.96-.163.52-.401.937-.716 1.25a2.63 2.63 0 0 1-1.158.669c-.46.133-.99.198-1.588.198-.6 0-1.13-.065-1.59-.198a2.62 2.62 0 0 1-1.158-.669c-.314-.313-.552-.73-.714-1.25-.164-.521-.246-1.175-.246-1.96v-5.613h1.695v5.639c0 .468.038.862.118 1.186.08.321.202.582.365.78.164.2.373.34.628.424.257.084.557.127.902.127M148.262 129.28v8.116h4.356v1.43h-6.05v-9.546z" style="fill:#fff;fill-opacity:1;fill-rule:nonzero;stroke:none;stroke-width:.352778" transform="translate(0 .002)"/><path fill="#6b6b6b" d="M741.082 361.43v-55.451H604.796V76.667h-65.794V361.43z" style="fill:#706e6f;fill-opacity:1" transform="matrix(.07915 0 0 .07915 59.493 26.713)"/><path fill="#6b6b6b" d="M129.61 46.729h4.239v3.94c-.78.3-2.304.597-3.755.597-4.688 0-6.25-2.382-6.25-7.217 0-4.612 1.487-7.328 6.174-7.328 2.605 0 4.092.819 5.319 2.382l3.238-2.976c-1.973-2.826-5.433-3.682-8.669-3.682-7.29 0-11.122 3.979-11.122 11.567 0 7.552 3.46 11.643 11.085 11.643 3.497 0 6.92-.893 8.779-2.194V42.525h-9.038z" style="fill:#706e6f;fill-opacity:1;stroke-width:.0791546" transform="translate(0 .002)"/></svg>