<?xml version="1.0" standalone="no"?>
<!DOCTYPE svg PUBLIC "-//W3C//DTD SVG 20010904//EN"
 "http://www.w3.org/TR/2001/REC-SVG-20010904/DTD/svg10.dtd">
<svg version="1.0" xmlns="http://www.w3.org/2000/svg"
 width="3000.000000pt" height="1080.000000pt" viewBox="0 0 3000.000000 1080.000000"
 preserveAspectRatio="xMidYMid meet">

<g transform="translate(0.000000,1080.000000) scale(0.100000,-0.100000)"
fill="white" stroke="none">
<path d="M6800 6980 c-375 -38 -695 -156 -931 -344 -91 -73 -170 -149 -219
-212 -45 -57 -113 -189 -135 -259 -40 -133 -51 -231 -36 -338 14 -96 46 -208
76 -267 37 -72 135 -207 187 -257 241 -233 529 -369 918 -434 161 -27 478 -26
640 0 368 62 626 179 875 400 48 43 165 179 165 192 0 4 16 32 35 64 55 93
105 274 105 385 0 119 -48 300 -105 395 -19 32 -35 60 -35 64 0 13 -117 149
-165 192 -210 186 -408 289 -698 363 -199 52 -487 75 -677 56z m323 -100 c126
-10 171 -18 317 -51 105 -24 270 -83 281 -101 12 -19 22 -95 14 -107 -3 -7
-44 -11 -98 -11 -98 0 -227 -19 -344 -51 -71 -20 -73 -20 -110 -1 -53 27 -144
54 -318 96 -94 23 -155 43 -162 53 -25 33 -12 138 19 154 19 10 143 25 236 28
24 0 98 -4 165 -9z m-523 -119 l0 -80 -57 -32 c-100 -56 -157 -100 -289 -221
l-51 -48 -122 0 c-90 0 -141 -5 -197 -20 -42 -11 -81 -22 -87 -23 -7 -1 -13
13 -15 32 -3 30 4 41 65 103 136 138 312 243 547 322 103 36 130 42 179 45
l27 1 0 -79z m1162 -240 c55 -13 161 -88 276 -197 l104 -97 -7 -61 c-18 -167
-61 -321 -93 -330 -9 -3 -55 -10 -102 -16 -47 -6 -114 -17 -150 -25 -36 -7
-91 -18 -122 -25 l-57 -11 -118 99 c-99 83 -225 175 -297 217 -16 9 -16 13 -2
45 13 33 44 175 63 295 l8 50 85 22 c133 35 337 52 412 34z m-1502 -310 c33
-49 87 -118 119 -153 l59 -64 -64 -93 c-69 -101 -109 -196 -120 -278 l-6 -52
-42 -5 c-22 -3 -110 -7 -195 -9 l-154 -4 -67 64 c-71 66 -137 158 -165 230
-16 39 -15 45 5 115 44 148 106 250 173 284 62 33 171 53 284 53 l112 1 61
-89z m2057 -61 c56 -155 53 -334 -8 -492 -29 -73 -49 -98 -81 -98 -8 0 -28 48
-52 121 l-39 121 23 46 c12 26 23 54 25 62 2 8 10 49 19 90 9 41 18 102 20
135 2 33 5 63 5 67 1 8 30 16 50 14 8 0 25 -30 38 -66z m-1179 -137 c104 -67
244 -172 353 -266 l47 -40 -87 -173 -86 -173 -45 -15 c-112 -37 -236 -59 -449
-81 l-134 -14 -81 56 c-45 31 -134 97 -200 147 l-118 91 5 57 c3 34 18 85 35
122 31 66 119 203 143 223 8 6 111 23 229 37 118 15 242 31 275 35 33 5 66 9
73 10 7 0 25 -7 40 -16z m-1357 -506 c27 -20 38 -37 42 -65 3 -20 8 -46 12
-57 13 -38 -110 104 -144 167 l-34 63 44 -40 c24 -22 60 -53 80 -68z m2368
-104 c-87 -100 -183 -176 -311 -246 -108 -58 -62 -12 81 80 69 46 153 107 186
138 66 60 81 69 44 28z m-669 -165 c62 -28 145 -63 174 -72 19 -6 19 -7 0 -24
-29 -28 -133 -96 -189 -125 -59 -31 -117 -42 -320 -63 -187 -19 -309 -9 -503
43 l-52 14 78 79 79 80 74 6 c41 3 137 15 214 25 127 18 173 27 300 61 22 6
45 12 50 13 6 1 17 -1 25 -5 8 -4 40 -19 70 -32z"/>
<path d="M24832 6753 l3 -238 1190 3 1190 3 57 212 c31 117 59 222 63 235 l5
22 -1255 0 -1255 0 2 -237z"/>
<path d="M8578 6648 c-90 -278 -105 -334 -92 -341 8 -5 95 -107 194 -228 l180
-221 0 -1014 0 -1014 318 2 317 3 5 1011 5 1012 165 203 c90 112 178 217 194
232 27 26 29 31 19 60 -7 18 -55 166 -108 330 -58 181 -101 297 -108 297 -7 0
-51 -13 -97 -29 -70 -23 -84 -32 -82 -47 2 -10 40 -130 83 -267 44 -136 79
-254 77 -262 -2 -8 -61 -87 -133 -175 l-130 -160 -202 0 -202 0 -129 158 c-70
86 -132 162 -136 169 -4 7 32 132 80 279 47 146 82 270 77 274 -9 8 -162 60
-178 60 -6 0 -58 -150 -117 -332z"/>
<path d="M13330 6070 l0 -910 665 0 665 0 0 910 0 910 -665 0 -665 0 0 -910z"/>
<path d="M17920 6350 l0 -630 -47 -30 c-104 -66 -306 -128 -523 -160 -209 -31
-349 -40 -687 -47 l-313 -6 0 171 0 172 -550 0 -550 0 0 -170 0 -170 -190 0
-190 0 0 -241 0 -240 1003 4 c876 3 1017 6 1122 21 211 30 373 66 520 118 74
26 250 115 269 137 7 9 40 108 72 221 l59 205 3 -507 2 -508 590 0 590 0 0
245 0 245 90 0 90 0 0 585 0 585 -90 0 -90 0 0 315 0 315 -590 0 -590 0 0
-630z"/>
<path d="M22340 6070 l0 -910 425 0 425 0 0 235 0 235 100 0 100 0 0 -235 0
-235 510 0 510 0 0 910 0 910 -510 0 -510 0 0 -265 0 -266 -97 3 -98 3 -3 263
-2 262 -425 0 -425 0 0 -910z"/>
<path d="M27640 6306 l0 -674 -32 -27 c-131 -111 -463 -198 -810 -212 l-148
-6 0 70 0 70 128 26 c420 87 625 238 640 471 l4 74 -38 6 c-22 3 -194 18 -384
33 l-345 28 428 3 427 2 0 130 0 130 -1465 0 -1465 0 0 -130 0 -130 105 0 c58
0 105 -2 105 -4 0 -2 -7 -20 -15 -39 -8 -20 -15 -63 -15 -96 0 -226 236 -399
663 -486 27 -5 27 -7 27 -80 l0 -75 -430 0 -430 0 0 -145 0 -145 808 0 c822 0
1109 8 1325 35 331 41 571 112 756 224 38 23 50 40 100 141 l56 115 3 -257 2
-258 590 0 590 0 0 140 0 140 90 0 90 0 0 525 0 525 -90 0 -90 0 0 275 0 275
-590 0 -590 0 0 -674z m-1330 -153 c37 -25 49 -45 50 -76 0 -46 -26 -83 -77
-108 -44 -22 -61 -24 -193 -24 -139 0 -147 1 -204 29 -70 34 -96 78 -75 128
24 58 61 67 279 68 168 0 199 -2 220 -17z"/>
<path d="M3830 5415 l0 -1555 635 0 635 0 0 485 0 485 125 0 125 0 0 635 0
635 -125 0 -125 0 0 435 0 435 -635 0 -635 0 0 -1555z"/>
<path d="M20470 6956 c0 -10 -217 -997 -295 -1341 -47 -209 -90 -397 -94 -417
l-9 -38 532 0 532 0 32 328 c18 180 41 435 53 567 25 299 22 285 59 285 37 0
36 6 49 -230 6 -102 18 -278 26 -392 8 -114 19 -269 25 -345 5 -76 10 -155 10
-175 l0 -38 455 0 c368 0 455 3 455 13 0 7 -51 269 -114 583 -63 313 -120 604
-127 647 l-13 77 -378 0 c-208 0 -378 3 -378 6 0 9 275 360 358 457 14 16 -14
17 -581 17 -329 0 -597 -2 -597 -4z"/>
<path d="M10470 6615 l0 -305 203 0 c112 0 206 -3 209 -6 8 -8 -423 -1076
-459 -1137 -2 -4 280 -6 628 -5 l633 3 75 340 76 340 58 3 c32 2 57 -1 57 -7
0 -20 51 -353 75 -486 13 -77 25 -152 25 -167 l0 -28 630 0 c347 0 630 3 630
7 0 3 -43 122 -96 262 -53 141 -125 339 -161 441 -36 102 -72 204 -80 227
l-15 43 -552 2 -553 3 130 83 130 82 549 0 548 0 0 305 0 305 -1370 0 -1370 0
0 -305z"/>
<path d="M14980 6555 l0 -365 781 0 c652 0 780 -2 776 -14 -7 -17 -82 -302
-111 -423 l-23 -93 618 0 618 0 5 33 c3 17 24 286 46 597 22 311 42 580 44
598 l5 32 -1380 0 -1379 0 0 -365z"/>
<path d="M1000 5480 l0 -1420 1288 0 1288 0 90 495 90 495 -668 0 -668 0 0
925 0 925 -710 0 -710 0 0 -1420z"/>
<path d="M9099 6595 c-58 -19 -131 -83 -158 -138 -16 -32 -21 -63 -21 -118 0
-64 4 -81 30 -126 89 -156 296 -179 422 -47 119 124 75 342 -85 418 -52 24
-132 29 -188 11z"/>
<path d="M22860 5089 c-307 -25 -561 -85 -722 -171 -57 -30 -178 -130 -178
-147 0 -4 35 10 78 31 122 61 239 82 462 82 189 1 283 -12 378 -51 57 -23 102
-71 102 -109 0 -101 -174 -157 -485 -156 -413 0 -602 115 -541 327 20 67 83
137 156 173 25 12 38 22 29 22 -18 0 -1209 -86 -1382 -100 -137 -11 -164 -22
-211 -95 -69 -106 -89 -209 -62 -332 52 -249 263 -431 656 -568 593 -206 1639
-250 2390 -99 461 92 763 250 862 452 30 61 33 75 33 162 0 88 -3 101 -34 165
-77 157 -225 252 -527 340 -247 72 -657 102 -1004 74z"/>
<path d="M10790 4715 l0 -335 1215 0 1215 0 0 -250 0 -250 720 0 720 0 0 585
0 585 -1935 0 -1935 0 0 -335z"/>
<path d="M24832 4873 l3 -138 1343 -3 1342 -2 0 -45 0 -45 -1344 0 -1343 0 1
-380 1 -380 1987 0 1987 0 10 53 c21 105 81 441 81 454 0 11 -251 13 -1382 15
l-1383 3 0 45 0 45 1343 3 1342 2 0 255 0 255 -1995 0 -1996 0 3 -137z"/>
<path d="M15160 4365 l0 -485 1988 0 1988 0 53 313 c29 171 55 322 58 335 l5
22 -1311 0 -1311 0 0 150 0 150 -735 0 -735 0 0 -485z"/>
<path d="M5580 4811 c-51 -11 -78 -31 -100 -76 -34 -71 -42 -161 -38 -403 6
-253 17 -315 69 -363 37 -35 68 -38 269 -28 444 23 1015 109 1480 223 124 30
302 70 395 90 161 33 575 88 771 102 l91 7 6 -58 c5 -52 17 -74 40 -75 19 0
27 64 26 223 -1 186 -6 220 -32 225 -21 4 -37 -34 -37 -90 l0 -41 -177 7
c-455 17 -625 37 -1148 135 -309 58 -704 102 -1090 121 -232 11 -471 11 -525
1z"/>
</g>
</svg>
