<svg xmlns="http://www.w3.org/2000/svg" width="780.83478" height="996.2326" viewBox="0 0 780.83478 996.23258"><path d="M28.146 182.683h-8.014s-6.4 7.189-7.6 8.532v-8.532h-8.7c-.271 0-.2.231 0 .413a4.132 4.132 0 0 1 1.6 2.808v16.706a1.79 1.79 0 0 0 1.839 1.89h5.265v-8.525c1.192 1.343 7.6 8.525 7.6 8.525h8.014l-9.459-10.913c.47-.533 9.459-10.9 9.459-10.9M93.582 193.6c0 7.582 5.214 11.546 10.375 11.546a15.655 15.655 0 0 0 8.684-2.607l.177-.121v-9.855H106v4.024h2.57v2.721a7.291 7.291 0 0 1-4.073 1.205c-3.116 0-6.262-2.352-6.262-6.854 0-4.21 2.336-7.048 5.833-7.048a11.94 11.94 0 0 1 6.584 2.273l.334.252 1.875-4.434-.322-.2a18.927 18.927 0 0 0-8.206-2.4c-5.335 0-10.749 3.948-10.749 11.495M42.039 200.133v-17.447h-6.381c-.267 0-.2.228 0 .41a4.151 4.151 0 0 1 1.6 2.808v17.123a1.314 1.314 0 0 0 1.432 1.473h13.319v-4.368zM59.335 200.133v-4.281H67.4v-4.764h-8.06v-4.034h9.06v-4.368H52.954c-.265 0-.192.228 0 .41a4.152 4.152 0 0 1 1.593 2.808v17.123c0 1.044.405 1.474 1.443 1.474H69v-4.368zM130.293 182.683v12.29c0 3.373-.6 5.488-4.112 5.488-3.454 0-4.566-1.764-4.566-5.374v-12.4h-6.332c-.273 0-.207.231 0 .413a4.162 4.162 0 0 1 1.59 2.808v9.907c0 6.238 2.7 9.386 9.273 9.386 6.561 0 8.883-2.91 8.883-9.386v-13.132zM80.057 195.456c.294-.955 2.32-7.475 2.467-7.954h.689c.154.479 2.182 7 2.487 7.954zm6.125-12.773h-8.228c-.265 0-.188.231 0 .413a2.905 2.905 0 0 1 .448 2.98L72.159 204.5h5.075s1.248-3.992 1.4-4.484H87.1l1.4 4.484h5.088zM143.168 200.133v-4.281h8.065v-4.764h-8.065v-4.034h9.066v-4.368h-15.445c-.268 0-.2.228 0 .41a4.133 4.133 0 0 1 1.593 2.808v17.123c0 1.044.405 1.474 1.438 1.474h13.01v-4.368z" style="fill:#001947" transform="scale(4.85491)"/><path d="m0 85.11 25 17.39s20.5-46.89 54.166-70.14V0A210.116 210.116 0 0 0 41 56.36C23.833 64.777 0 85.11 0 85.11Z" style="fill:#e72410" transform="scale(4.85491)"/><path d="M22.666 159.443c-8.166-58 46.834-139.667 138.168-136 0 0-51.334 30.667-71.167 61.167 15.833 45.167 55.054 83 55.054 83s-47.325-7.5-91.94-46c-12.947 10.5-30.115 37.833-30.115 37.833z" style="fill:#1f1f45" transform="scale(4.85491)"/></svg>