<svg xmlns="http://www.w3.org/2000/svg" width="762.2193" height="931.52423" viewBox="0 0 762.21932 931.52422"><path d="M112.042 830.734H75.384s-29.32 32.485-34.769 38.56v-38.56H.812c-1.243 0-.91 1.034 0 1.856 2.895 2.504 7.304 7.235 7.304 12.692v75.514c0 4.846 3.351 8.543 8.416 8.543h24.083v-38.535c5.449 6.077 34.769 38.535 34.769 38.535h36.658s-41.127-46.881-43.272-49.306c2.145-2.435 43.272-49.3 43.272-49.3M414.403 879.154c0 34.268 23.853 52.191 47.445 52.191 14.237 0 29.46-4.513 39.768-11.783l.803-.549v-44.538h-31.21v18.174h11.758v12.302c-5.308 3.521-11.723 5.468-18.646 5.468-14.264 0-28.646-10.661-28.646-31.003 0-19.023 10.704-31.849 26.683-31.849 14.138 0 25.757 7.191 30.12 10.287l1.544 1.125 8.582-20.042-1.466-.884c-.762-.434-19.253-10.852-37.56-10.852-24.428 0-49.175 17.838-49.175 51.953M175.066 909.467v-78.866H145.873c-1.24 0-.932 1.034-.014 1.856 2.865 2.504 7.309 7.235 7.309 12.692v77.39c0 4.15 2.186 6.667 6.568 6.667h60.944v-19.739h-45.614M257.829 908.694v-19.362h36.892v-21.527H257.83v-18.237h41.479v-19.74H228.63c-1.214 0-.884 1.034-.006 1.856 2.876 2.503 7.3 7.234 7.3 12.692v77.39c0 4.714 1.851 6.666 6.604 6.666h59.512v-19.738h-44.212M580.879 829.76v55.536c0 15.247-2.742 24.808-18.834 24.808-15.79 0-20.86-7.96-20.86-24.29v-56.053h-28.978c-1.26 0-.943 1.034 0 1.856 2.868 2.504 7.274 7.235 7.274 12.692v44.79c0 28.196 12.336 42.425 42.424 42.425 30.007 0 40.654-13.17 40.654-42.425V829.76h-21.68M350.707 887.613c1.334-4.316 10.593-33.777 11.283-35.952h3.147c.714 2.175 9.986 31.636 11.367 35.952h-25.797zm28.02-57.72h-37.652c-1.208 0-.873 1.035 0 1.857 2.857 2.487 3.861 8.057 2.051 13.478l-28.57 83.27h23.23s5.703-18.05 6.404-20.262h38.705c.722 2.211 6.417 20.263 6.417 20.263h23.278l-33.863-98.605M643.752 908.627v-19.362h36.89V867.74h-36.89v-18.237h41.46V829.76H614.553c-1.233 0-.919 1.034 0 1.856 2.876 2.504 7.295 7.235 7.295 12.692v77.39c0 4.714 1.853 6.667 6.59 6.667h59.52v-19.739h-44.206" style="fill:#182241;fill-opacity:1;fill-rule:nonzero;stroke:none;stroke-width:.270755"/><path d="M622.784 337.192c2.416-1.44 3.232-1.68 3.232-2.462 0-.904-1.386-.852-2.874-.871-38.626-.51-85.61 5.37-134.234 28.36-24.647 11.652-49.715 27.699-74.33 49.536-29.762 26.405-66.472 70.657-84.82 128.924-3.933 12.493-10.634 37.23-10.634 72.004 0 11.587.017 18.225.644 20.843.436 1.82 1.677 1.368 3.362-1.552 1.534-2.659 8.25-14.094 18.039-27.808 12.193-17.086 29-37.923 43.667-50.154 1.709-1.425 2.948-3.193 5.742-.308 3.19 3.292 17.744 16.308 59.488 42.359 41.743 26.052 92.512 46.256 131.283 56.513 10.487 2.775 7.436-1.672 4.512-4.41-26.616-24.923-63.167-74.747-79.845-102-27.027-44.154-35.334-69.795-36.463-72.462-1.128-2.666-.553-4.281 1.155-6.538 1.86-2.462 15.922-21.154 38.768-43.615 22.846-22.463 60.59-52.308 87.36-69.23 16.856-10.657 21.045-14.206 25.948-17.129" style="fill:#182241;fill-opacity:1;fill-rule:nonzero;stroke:none;stroke-width:.133333" transform="matrix(2.01392 0 0 2.04756 -526.845 -580.007)"/><path d="M271.708 472.987c1.317.91 50.666 35.384 51.845 36.205 1.18.82 2.568 1.715 3.59-.616 12.873-29.333 28.102-54.641 42.718-76.102 14.615-21.462 42.05-53.642 73-76.615 2.144-1.592 2.128-1.077 2.128-4.205s.975-63.538.975-66c0-1.872-1.111-3.367-2.77-1.591-22.794 24.41-32.924 38.667-48.205 63.283-15.281 24.614-32.513 57.846-33.23 59.18-.718 1.333-1.437 1.948-4.309 3.486-2.872 1.539-19.025 9.948-39.333 23.692s-43.281 33.18-45.18 34.667c-1.896 1.488-4.05 2.667-1.23 4.616" style="fill:#ed202a;fill-opacity:1;fill-rule:nonzero;stroke:none;stroke-width:.133333" transform="matrix(2.01392 0 0 2.04756 -526.845 -580.007)"/><path d="M762.22 928.532h-17.145c-4.69 0-7.116-1.94-7.116-5.69V849.92h-8.896l-3.72-18.36h36.876z" style="font-size:40px;font-family:&quot;K League Basic&quot;;fill:#182241;fill-opacity:1;stroke:none;stroke-width:3.61527;stroke-opacity:1"/></svg>